<?xml version="1.0" encoding="UTF-8"?><svg id="a" xmlns="http://www.w3.org/2000/svg" viewBox="0 0 1342.11 839.68"><defs><style>.c{fill-rule:evenodd;}</style></defs><g id="b"><path class="c" d="M1042.91,386.07c-.7-2.7-1.2-5.5-3.6-7.4-3.6-2.9-7.2-5.8-10.9-8.5-7.8-5.8-15.6-11.7-23.2-17.7-5.4-4.3-11.2-8.2-16.1-13.2s-9.8-10.2-14.7-15.3c-5.7-6-11.2-12.1-16.8-18.1-6.8-7.3-13.6-14.5-21.4-20.8-3-2.4-6.1-4.9-9-7.5-3.4-3.1-6.3-6.7-9.9-9.7-1.2-1.1-2.7-1.6-4.3-1.6-2.4-.1-4.7,.2-7,.9-2.6,.8-5.3,.5-7.8,1.4-6.4,2.3-12.7,5.1-18.9,8-3.8,1.8-7.7,3.4-11.5,5,.4-.8,1-1.5,1.8-2,6.1-4.2,11.3-9.5,15.4-15.6,.9-1.7,2.7-2.7,4.6-2.7,1.6-.1,3.1-.3,4.7-.4,1.4,0,2.7-.8,3.2-2.1,.6-1.1,1.1-2.3,1.6-3.5,.3-1.3,1.4-2.2,2.7-2.3,1.6-.3,3.2-.9,4.6-1.8,10.6-7.4,15.6-18.4,19.9-29.9,3-8.3,4.3-17.2,3.9-26-.1-3.9-.3-8-2.6-11.3-2.1-2.9-3.1-6.5-2.7-10.1,.7-7.3-.7-14.4-2-21.5-1.2-6.6-3.4-13.1-5.2-19.6-1.9-6.8-4.4-13.5-7.6-19.9-1.8-3.7-3.3-7.5-5.2-11.1-1.3-2.6-2.7-5.2-4.2-7.6-1.7-2.4-3.1-5-4.6-7.4-3-5-6.3-9.8-9.7-14.5-3.7-5.2-8.3-9.8-12.8-14.3-5.1-5.1-10.4-10-16-14.5-3.6-3-8-4.8-12.6-5.3-1-.1-2.2,.3-3.1-.5-4.6-4.2-9.6-7.8-14.2-11.9-5.1-4.4-10.2-8.8-16-12.2-9.1-5.2-18.6-9.3-29-11.2-6.7-1.2-13.3-2.9-20.2-1.4-3.9,.8-8,.9-11.8,2.7-1.1,.5-2.6,1.2-2.6,2.4,.1,1.3,1.8,1.4,2.9,1.7,4.6,1.3,9.3,1.6,14,2.2,1.9,.2,3.6,1.1,5.4,1.4,4.9,.8,9.5,2.5,13.7,5.2,4.4,3,8.4,6.5,12,10.4,1.6,1.6,3.4,3.2,4.3,5.8-6.5-2.3-12.4-5.1-18.6-7.2-9.4-3.1-18.9-6-29-5.8-1.4,.2-2.8-.3-3.9-1.2-1.3-1.3-2.9-1.5-4.6-1.3-1.4,0-2.7,.9-3.1,2.2-.6,1.4,0,2.3,.9,3.3,3.9,4.2,8.6,7.4,13.3,10.6,6.5,4.3,12.7,9.2,18.9,14,4.1,3.2,8,6.6,11.9,10.1s7.8,6.7,11.2,10.5c3.8,4.4,6.1,9.7,8.3,15,1.6,4,2.9,8.1,4.5,12.1,2.5,6.4,5.6,12.7,9.2,18.6,1,1.2,1.8,2.6,2.3,4.1,.6,1.9,1.3,3.8,2.3,5.6,3.4,6,6.9,11.9,10.5,17.7,3.9,6.2,8.2,12.2,12.8,18,5.3,6.8,10.9,13.4,15.9,20.5,1,1.1,1.3,2.6,.8,4-.6,2.2-.6,4.6,.1,6.8,.5,1.9,1.5,3.9,.9,5.9-.7,2.2-1.6,4.3-2.7,6.4-2.2,4.4-4.3,8.8-5,13.7,0,.9-.6,1.8-1.4,2.1-6,3.4-12.2,6.6-17.7,10.7-.8,.6-1.9,2-2.9,1.3s-.4-2.3-.1-3.5c.6-2.8-1.2-5.6-4-6.2-.8-.2-1.6-.2-2.3,0-3.3,.7-4.1,0-4.3-3.4v-1.1c0-5-3.7-7.4-8.2-5.2-3.2,1.5-3.6,1.4-4.7-2-.1-.2,0-.5-.1-.6-.9-1.4-.8-3.2-2-4.4-2.2-2.3-4.7-1.7-7.2-.8q-5.6,2-6.8-3.9v-.2c.1-2.7-1.5-4.1-3.9-4.4-2.1-.3-4.7-.7-6.2,.3-2.8,1.8-5.3,1.1-8,.8-.9-.1-1.3-.7-.6-1.3,1.7-1.5,2.3-3.8,3.6-5.4,1.5-1.8,1.3-3.2,1.2-5.1-.3-2.9-2.3-5.3-5.1-6.1-3.3-.9-6.1,.6-8.6,2.4-2.7,1.9-4.4,4.9-7,7-1.2,1-2.1,1-3.2-.1-1.7-1.8-3.6-3.5-5.1-5.5s-3.4-1.9-5.4-1.4c-.8,.3-1.6,.7-2.3,1.1-2.5,1.3-2.7,1.2-3.7-1.3-.3-.8-.7-1.6-1.1-2.4-1.4-2.8-3.9-3.6-6.7-2-2.3,1.3-3.3,1.2-5.2-.8-.8-.8-1.4-1.8-2-2.8-1.3-2.5-4.4-3.5-7-2.2-.8,.4-1.4,1-1.9,1.7-.7,.9-1.4,1.6-2.1,2.5-.9,1.1-1.6,1-2.3-.3-1-1.8-2-3.5-2.9-5.3-.7-1.5-2.2-2.4-3.8-2.4-1.6-.2-3.2,.5-4.2,1.7-2.2,2.5-2.3,2.5-3.7-.7-.6-1.3-1.5-2.5-2.7-3.4-1.8-1.5-3.6-1.3-5,.6-.8,1.1-1.5,2.3-2.1,3.5-.9,1.6-1.8,1.7-2.8,.1-.6-1.2-1.1-2.4-1.5-3.6-.4-.9-.8-1.9-1.9-1.9-4-.3-5.9-.8-6.8,4-.1,.4-.1,.9-.2,1.3-.4,1.6-1.3,1.6-2.4,.7-.5-.5-1-1.1-1.3-1.7-1-1.9-2.5-2.5-4.7-2.4-1.8,0-3.2,.4-4.3,1.9-.6,.6-1.3,1.2-2,1.7-1,1-2,1-2.8-.2-.8-1-1.9-1.6-3.1-1.6-3.7-.6-5.7,1.2-7.1,4.3-1,2.2-1.9,2.3-3.2,.3s-3.1-2.5-5.2-2.3c-1.5,.1-2.8,.6-3.1,2.6-.7,4.5-.8,3.9-4,1.4-4.4-3.5-7.8-1.7-9.4,3.2-.5,1.7-3.8,3.6-5.2,2.5-2.2-1.7-4.8-2.7-6.5-5-2-2.5-4.1-4.9-6.5-7-2.5-2.4-7.2-3-9.8-1.3-3.2,2.1-4.5,6.1-3.2,9.7,.9,2.7,2.7,4.7,4.6,6.7,.4,.4,1.1,.7,.5,1.4s-1.3,1.1-1.9,.5c-1.3-1.2-2.8-1.2-4.3-1.6-1.5-.3-2.9-.9-4.1-1.9-1.6-1.5-2.9-1.2-4.7-.1s-1.9,3.1-2.7,4.8-1.2,3.2-3,3.3-2.5-1.6-3.2-2.9c-1-1.7-2.6-2.3-4-1.6s-3.1,2-3.2,4c0,1.4-.3,2.8-.7,4.2-1,3-2.7,3.3-4.7,.8-.9-.9-1.9-1.7-3.1-2.3-.9-.5-2-.5-2.9,.1-.4,.1-.7,.6-.5,1.1,0,.1,.1,.1,.1,.2,.8,1.4,.1,2.7-.2,4-.5,2.4-2.5,2.9-4.4,1.2-.6-.6-1.2-1.2-1.9-1.7-2.3-1.5-4.1-.8-5,1.8-.4,1.5-.5,3-.4,4.5,0,1.4,.1,3.1-.9,3.8-1.3,.8-2.4-.8-3.5-1.5-2.3-1.5-3.8-1.5-5.8,.4-.8,.9-1.4,.5-2,0-1.4-.9-2.8-1.9-4.1-2.8-2.7-2-5.3-4.1-4.6-8.1,.2-.9,.4-1.8,.6-2.8,.6-3.8,2-7.5,1.4-11.3-.3-1.4-.1-2.9,.7-4.1,1.4-1.9,1.3-3.8,.1-5.8-1.7-2.9-1.7-5.6,.8-8.3,4.4-4.6,8.6-9.3,13-13.8,5.3-5.5,10.7-10.9,15.6-16.8,4.9-6,9.5-12.3,13.6-18.9,2.9-4.6,5.6-9.2,8.4-13.9,1.3-2.4,2.5-4.8,3.5-7.3,1.5-3.7,2.8-7.6,3.8-11.4,1.3-4.5,2.9-8.9,3.5-13.5,0-.3,.3-.9,.5-.9,1.8-.1,2-1.8,2.3-2.9,1.4-3.9,4.2-6.5,7.1-9.1,4.7-4.2,9.6-8.1,14.7-11.7,3.6-2.6,7.2-5.1,10.9-7.5,6.5-4.1,13.4-7.6,20.2-11.2,5.1-2.7,10.4-5.1,14.8-8.9,1.3-1,2.2-2.6,2.2-4.2,0-.9-.3-1.4-1.3-1.3-2.7,.4-5.4,.8-8.1,1.1-1.5,0-2.9,.4-4.1,1.2-3.3,2.5-7.4,2.7-11.1,4-1.7,.7-3.5,1.1-5.4,1.3-1.5,.1-2.5,2.2-4.4,1.5-.4-.2-.7,.4-.6,.9,.2,1-.7,1.1-1.3,1.3-1,.2-2.1,.1-3-.3-.9-.2-1.8-.1-2,.7-.7,2.8-3.2,1.9-4.9,2.3-.9,.2-1.8-.9-3.2-.2,.4-.9,1.1-1.6,1.9-2,8.8-5.9,18.5-9.3,28.8-11.2,4.8-.9,9.6-2,14.2-3.5,.3-.1,.7-.2,.8-.6s-.3-.8-.7-.9c-1.4-.7-2.9-1.3-4.4-1.8-8.8-1.9-17.6-.8-26.4-.2-4.4,.3-8.3,2.2-12.3,3.6-6.4,2.1-12.7,4.6-18.9,7.4-3.1,1.4-5.8,3.5-9,4.9-5.6,2.4-11,5.5-15.9,9.2-5.1,3.8-10.2,7.5-15.4,11-2.4,1.6-4.8,4.1-7.7,4.1-3.3,.1-5,2.2-7.2,3.7-1.3,.9-2.5,1.9-3.8,2.9-7.3,5.9-14.4,12-21,18.7-3,2.9-5.5,6.3-8.2,9.4-2.3,2.7-4.4,5.5-6.4,8.5-2.8,4-5.7,7.9-8.3,12-4.7,7.4-9.2,14.9-12.5,23.1-.5,1.2-.3,2.5-1,3.7-3.3,5.9-5.2,12.5-5.5,19.3,0,3.5-1.1,6.9-3.2,9.7-2.8,3.8-3.7,8-3.8,12.4-.2,6.9-.5,13.9-.8,20.8-.2,4.3,.5,8.7,.9,13,.4,3.7,.8,7.6,4.3,10,1.6,1.1,2.5,3.1,2.2,5.1-.1,.6-.1,1.2-.1,1.7,.4,3.9,.9,7.7,5.8,9,3.3,.8,6.5,2.2,5.7,6.8,0,.5,.1,1,.3,1.5,2.4,5.7,5.5,11,9.3,15.8,5.1,6.7,10.8,12.9,16.5,19.1s12,11.9,19.6,15.8c2,1,3.6,2.1,4.1,4.3,.1,.5,.9,1,.3,1.5s-1.1,.1-1.6-.1l-10.5-3.1c-6.6-2-13.2-4.1-19.6-6.6-10.6-4.1-20.3-10-30.3-15.1-4.2-2.2-8.2-4.9-13.3-4.8-.4,0-.8-.2-1.1-.5-1.8-2.1-4.4-1.9-6.6-1.9-1.7,0-3.6-.2-5.2,1-2.8,2.1-6.1,3.6-7.8,6.9-.1,.2-.5,.5-.7,.5-1.7-.2-2.5,1.2-3.7,2-2.5,1.8-4.7,4.1-7,6.2-7.4,6.5-14.9,13-22.9,18.8-4.4,3.2-8.6,6.8-12.7,10.4s-8.8,7.2-13.2,10.8c-7.7,6.2-15,12.8-22,19.8-1.3,1.2-2.1,2.9-2.3,4.7-.5,4.5-.2,9.1,.9,13.6,.5,1.2-.1,2.5-1.2,3.1-1.8,1.1-3.6,2.4-5.4,3.6-3.5,2.2-7.3,4.2-10.7,6.6-4.1,2.9-8,6.2-12,9.3-3,2.1-4.9,5.4-5.2,9.1-.1,1.6-.2,3.1-.1,4.7,0,8.4,1.1,16.7,3.3,24.8,2.1,7.6,4.6,15,7.2,22.4,1.6,4.8,4,9.3,7,13.3,1.2,1.6,3.3,2.1,4.4,1,1.2-1,2-2.6,2-4.2-.1-5.8-1.3-11.5-1.9-17.2-.5-3.5-.7-7-.5-10.6,.4-2.6,.5-5.3,.6-7.9-.2-5.1,1.5-9.8,2.1-14.6,.3-2.3,1.6-4.3,3.6-5.4,4.2-2.8,8.2-5.9,12-9.2q2.1-1.8,3,.7c1.6,4,3.2,7.9,4.9,11.8,1.1,2.8,2.7,5.3,4.8,7.4,1,.9,2.4,2,3.6,.9s2.2-2.7,1.3-4.4c-1.6-3.5-1.6-7.3-2.5-10.9-1-4-1-8.1-1.7-12.2-.6-2,.3-4.1,2.1-5.1,3.6-2.4,7.1-4.9,10.8-7.3,10-6.7,19.6-13.9,28.8-21.6,6.8-5.5,13.5-11.1,20.5-16.4,3.7-2.9,7.6-5.5,11.6-8,2.5-1.5,5.1-3.3,8.5-2.2,1.2,.4,2.5-.1,3-1.2,.6-1.8,1.2-1,2.1-.4,3.6,2.5,7.2,5,10.9,7.4,4.2,2.8,8.5,5.5,12.8,8,1.8,1.1,1.3,1.9,0,2.8-2.7,2-5.4,3.9-7.9,6-10.8,9.3-22,18-32.8,27.2-3.7,3.1-7.8,5.8-10.9,9.6-.6,.8-1.4,1.4-2.4,1.8-1.5,.6-2.9,1.4-4.1,2.4-3.1,2.2-6.1,4.6-9.3,6.8-7.6,5.2-15.3,10.4-22.9,15.5-1.3,.7-2.3,1.8-2.8,3.2-.1,.6-.6,1-1.2,1-2.2,.2-5,2.9-5.7,5-1.5,4.8-1.7,9.8-2.3,14.8-.7,6.4,.3,12.8,1,19.2s1.3,12.6,2.1,18.9c.8,5.7,1.8,11.3,3.2,16.9,.3,2.1,1.2,4,2.5,5.7,.6,.9,1.9,1.1,2.8,.4l.2-.2c1.5-1.1,2.3-2.9,2.3-4.7-.2-3.4-.4-6.8-.4-10.1-.1-9.2,1.1-18.4,3.4-27.3,.9-3.1,.6-6.6,2.1-9.5,1.7-3.4,3.2-6.9,4.5-10.5,.6-1.5,.6-3.5,2.2-4.6,2.1-1.6,4.1-3.4,6-5.3,2.9-3,6.1-5.6,9.5-8,4.3-2.8,8.4-5.9,12.3-9.2,2.8-2.3,5.1-5.7,9.3-6,.2,0,.3-.4,.4-.7,.2-1.2,1.2-1.7,2.1-2.3,4-2.6,8.6-4.4,12.4-7.4,1.3-1.1,2.5-2.5,4-3.2,5.4-2.8,10.6-5.9,15.5-9.4,8.2-5.6,15.9-11.9,24.9-16.3,2-1.1,4.4-1.1,6.3,.1,8.6,4.9,17.2,9.7,26.2,13.9,1.6,.8,3.2,1.6,4.9,2.4-.7,.8-1.4,.6-2,.6-7.2,.7-13.5,8.3-12.9,15.5,.4,4.5,.6,9-2.3,13-2,2.8-2.6,6.4-3.6,9.7l-1.1,7.4c-5,5.6-6.5,12.6-7.7,19.6-1.1,6.3-.6,12.8-1.3,19.2-.1,.3-.1,.5,0,.8v.5c0,2.6,.6,5.1,1.6,7.4,.2,.6,.6,1.1,.8,1.8,.8,2.4,3.1,4,3.1,6.8,0,5.2,.7,10.4,2,15.4,1.1,5,2.8,9.8,4.4,14.6,2.1,6.4,4.8,12.7,8,18.6,3.4,6.5,8,12.2,13.4,17.1,3.3,2.9,6.8,6,11.4,6.1,2.7,.1,5.4,2,8.3-1.1,5.2-5.6,8.9-11.8,10.4-19.4,.8-4.3,0-8.6,.2-12.9s-1.7-7.8-2.8-11.7c-2.9-10.6-7.2-20.8-12.8-30.3-2-3.3-2.8-6-2.4-9.7s-.5-7.5-.7-11.2c-.5-10.4,.6-20.8,.4-31.2v-3.5c-.1-1.3,.9-2.5,2.2-2.8,1.6-.3,3.1-.5,4.7-.5,4-.3,8-.3,12,0,4,.2,8,.8,11.9,.2,4.7-.7,9.4-.8,14.1-1.8,3.5-.7,7.2-.8,10.5-2.1,4.3-1.7,8.2-4.1,12.2-6.4,3.3-1.9,6.5-4,9.6-6.1s6.3-3.5,10.4-2.6c3.8,.9,7.8,1.4,11.7,1.5,4.8,.1,9.5,.5,14.2,1.1,8,.8,16,1,24,.6,9-.3,17.8-2.3,26.7-3.6,4.7-.7,9.5-1.9,13.3,2.3,.3,.3,.8,.4,1.1,.6,1.9,1.1,4.3,1.1,6,2.3,2.9,2,6.1,2.7,9.6,2.9,3.8,.1,7.6,.5,11.4,1.2,9.2,1.9,18.6,3.1,28.1,3.5,5.3,.2,10.6-.5,15.9,0,1.9,.2,3.9-.4,5.8-.2,3.7,.2,7.5,.8,11.2,.7,1.4,.1,2.7,.4,4,.8,1,.3,1.4,.9,1.6,2,1.2,5,1,10.2,2.5,15.1,1.5,4.9,1.8,9.9,3.5,14.7,.7,1.8,1,3.7,1,5.7,0,3.9-.3,7.9,1.1,11.7,.4,1.1,.2,2.3-.5,3.3-2.8,4.7-6.7,8.7-8.8,13.8-5,11.9-7.8,24.1-6.2,37.1,.6,4.9,1.5,9.9,3.8,14.3,2,4,5.2,7.4,9.1,9.7,3.6,2.3,8,2.9,12.1,1.7,3.8-1.2,8.1-1.8,11.4-5,1.4-1.3,4.1-1.3,4.3-4.1,4.6-3.8,6.9-9.2,9.5-14.2,3.8-7.3,7-15,8-23.3,.7-5.5,1.3-11.1,.3-16.8-.6-2.7,0-5.4,1.7-7.6,1.5-1.8,2.3-4,3.6-5.8,.8-1.3,1-2.9,.5-4.4-2-5.9-2.1-12.2-3.2-18.2-1-5.8-2.9-11.4-5.5-16.6-1-2.2-2.7-4-4.9-4.9-1.4-.6-2.5-1.8-2.9-3.2-.6-1.7-.9-3.5-.7-5.3,.3-3-.8-5.4-2.5-7.8-1.9-2.8-3.7-5.7-5.4-8.5-.7-1.1-.8-2.5-.3-3.7,.7-2.5,.9-5.1-.6-7.3-2.3-3.6-4.3-7.5-8.7-9.3-.7-.3-2.1-.7-2.1-1.6s1.4-1,2.2-1.5,1.5-.8,2.3-1.3c5.6-3.3,10.9-7.2,16.9-10,2.2-1,4.2-2.8,7-2.4,4.7,.7,8.1,3.7,11.8,6.2,5.6,3.8,10.6,8.4,16.3,12.1,9.2,6.1,17.9,12.9,27,19.1,5.9,4,11.6,8.3,17.2,12.6,1.7,1.4,3.7,2.8,4,5.5,.2,1.3,1,3.1,3.2,1.8,.7-.5,1.2,.1,1.7,.5,4.2,3.4,8.4,6.8,12.7,10,2.7,2,4.8,4.3,5.4,7.7,.3,1.8,.7,3.5,1,5.3,1.3,5.9,2.1,11.9,2.4,18,.2,6.1,.1,12.3-.5,18.4-.4,4.1-.4,8.2-1.1,12.3-.5,2.8-1.2,5.7-.9,8.6,0,1.6,1,3.1,2.4,3.7,1.8,.7,2.5-1.1,3.2-2.3,1-1.7,1.9-3.6,2.6-5.4,1.3-3.7,2.2-7.6,3.3-11.4,2.4-8.5,4-17.2,5.6-25.9,1.2-6.5,2.2-13,2.9-19.6,.5-5.1,1-10.2,.2-15.3-.2-1.4-.9-2.8-2-3.7-2.8-2.5-6.2-4.3-9.1-6.9-2.3-2.1-5-3.7-7.5-5.5-2.1-1.5-4.1-3.1-6.1-4.7-.8-.6-1.1-1.3-.4-2.2,4.5-5.9,8.9-11.9,12.1-18.6,.4-.9,.9-1.1,1.8-.4,8.2,6.5,16.6,12.8,23.8,20.4,3,3.1,6.2,5.8,9.8,8.2,.8,.5,1.7,1.2,1.8,2.1,.3,2.2,1.2,4.3,1.5,6.5,.8,6,1,12.1,.4,18.1-.2,2.4-.2,4.8-.5,7.1-1.6,10-3.4,19.9-5.2,29.8-.3,1.6-.1,2.6,1.2,3.5,1.5,1,3,1.4,4.6,.2,1.4-1.1,2.5-2.5,3.3-4,2.8-5.2,5.2-10.5,7.3-16,2.9-7.5,5.2-15.2,7.5-22.9,1.9-6.2,2.6-12.7,3.4-19.1,1.2-5.3,1.9-9.9,.7-14.4Zm-79.7-26.5c-1.2,5.3-1.5,10.7-3.1,15.9-.9,2.8-1.2,2.9-3.4,1.2-9-6.8-17.3-14.4-25.7-22-4.8-4.4-9.8-8.5-14.5-13-3.3-3.2-6.6-6.4-10-9.2-3.8-3.1-7.8-6.2-11.8-9.1-.5-.3-.9-.7-1.6-1.2,4.6-3.5,9.6-5.9,14.5-8.6,1.2-.6,2.3-1.4,3.3-2.4,1.3-1.4,2.6-1.2,4.1-.7,3.1,1,5.6,2.9,8.2,4.7,6.9,4.7,13.6,9.6,19.4,15.6s11.2,12.8,17.2,18.9c3.1,2.9,4.3,5.7,3.4,9.9Z"/><path d="M104.91,612.47c23.6,0,41,3.7,52.1,11,11.1,7.4,16.7,18.1,16.7,32.2,0,3.2-.4,6.5-1.2,9.6-.7,2.8-1.7,5.4-3,8-1.1,2.3-2.5,4.4-4.1,6.4-1.4,1.8-3,3.4-4.8,4.9-3.8,3.3-8.2,6-12.9,7.8v1.8c7.2,.8,14.2,3.1,20.4,6.8,2.7,1.7,5.2,3.6,7.5,5.8,2.6,2.5,4.8,5.3,6.5,8.4,2,3.6,3.6,7.5,4.6,11.5,1.2,4.9,1.8,9.9,1.8,15,.1,7.9-1.5,15.8-4.6,23.1-3.1,6.8-7.8,12.8-13.8,17.4-6.1,4.8-13.7,8.4-22.8,10.9-9.1,2.5-19.7,3.8-31.7,3.8-11.1,0-20.2-.7-27.2-2.1-7-1.4-12.5-3.4-16.4-6-3.6-2.3-6.4-5.6-8-9.6-1.5-4.1-2.2-8.4-2.1-12.7v-133.5c0-4.5-3.1-6.7-9.3-6.7-4.6,0-9.2,.7-13.6,2-4.4,1.3-8.6,3.1-12.4,5.5-3.5,2.2-6.6,5-9.1,8.3-2.3,3-3.5,6.7-3.5,10.4-.1,2.1,.2,4.2,1,6.2,.5,1.3,1.3,2.5,2.4,3.5,.8,.7,1.7,1.2,2.8,1.5,.7,.2,1.3,.3,2,.3,1.7,.1,3.4-.3,5-1,1.2-.6,2.4-1.4,3.5-2.2l3-2.2c.9-.7,2.1-1,3.2-1s2.1,.3,3.1,.7c1.2,.5,2.2,1.2,3.1,2.1,1,1.1,1.8,2.4,2.4,3.8,.7,1.9,1,3.8,1,5.8,.1,2.9-.6,5.8-1.9,8.4-1.2,2.3-2.9,4.3-4.9,5.9-2,1.6-4.4,2.8-6.8,3.5-6,1.8-12.4,1.5-18.2-.9-3-1.3-5.8-3.2-8-5.5-2.2-2.4-3.9-5.2-5-8.3-1.2-3.3-1.7-6.7-1.7-10.1-.1-6.2,1.2-12.3,3.8-17.9,2.5-5.2,6.2-9.8,10.7-13.4,5-4,10.6-7.1,16.5-9.3,6.9-2.6,14.1-4.6,21.4-5.9,8.3-1.5,16.7-2.6,25.1-3.1,8.5-.6,17.8-.9,27.4-.9Zm-2.5,160.7c0,1.8,.2,3.6,.5,5.3,.3,1.6,1.1,3.1,2.2,4.3,1.2,1.3,2.8,2.3,4.5,2.9,6.7,2.1,14,1.1,19.8-2.8,3.8-2.6,7.1-6,9.6-9.9,2.8-4.2,4.9-8.7,6.2-13.5,1.4-4.9,2.2-9.9,2.2-15,.1-6.7-.9-13.3-3-19.6-1.8-5.3-4.6-10.2-8.4-14.4-3.6-3.8-7.9-6.9-12.7-9-5-2.2-10.4-3.5-15.9-3.7l2.4-6.2c3.5,.2,7-.3,10.2-1.5,3.3-1.2,6.3-3.3,8.6-6,2.8-3.4,4.8-7.4,5.9-11.6,1.6-5.9,2.3-12.1,2.2-18.2,.1-4.5-.6-9.1-1.8-13.4-1-3.6-2.7-7-4.8-10.1-1.8-2.6-4.2-4.7-7-6.3-2.5-1.4-5.3-2.2-8.1-2.2-1.7,0-3.3,.2-4.9,.6-1.5,.4-2.9,1.1-4.2,2.1-1.2,1-2.2,2.4-2.8,3.8-.7,1.9-1.1,3.9-1,5.9l.3,138.5Z"/><path d="M317.91,773.67c0,.8,0,1.6,.1,2.4,.1,.8,.3,1.7,.6,2.4,.3,.8,.8,1.4,1.5,1.9,.8,.5,1.8,.8,2.8,.7,1.5,0,3-.6,4.1-1.7,1.2-1.1,2.4-2.2,3.4-3.4l2.9,2.6c-1.4,2-3,3.9-4.6,5.7-2,2.2-4.2,4.2-6.6,5.9-2.8,2-5.7,3.5-8.9,4.7-3.6,1.3-7.5,2-11.4,1.9-3.2,.1-6.3-.4-9.3-1.4-2.5-.8-4.7-2.1-6.7-3.8-1.8-1.5-3.2-3.5-4.1-5.6-.9-2.2-1.4-4.5-1.3-6.9v-5.4c-3.9,4.3-8.2,8.1-12.8,11.6-2,1.5-4,2.9-6.2,4.3-2.2,1.4-4.5,2.6-6.8,3.7-2.4,1.1-4.8,2-7.3,2.6-2.5,.7-5,1-7.6,1-4.3,.1-8.6-.8-12.5-2.6-3.3-1.6-6.2-4-8.4-6.9-2.1-2.9-3.7-6.2-4.6-9.6-1-3.5-1.5-7.1-1.5-10.7v-75.5c0-.7,0-1.5-.1-2.4-.1-.8-.3-1.7-.6-2.5-.7-1.7-2.4-2.8-4.3-2.6-1.5,0-3,.6-4.1,1.7-1.2,1-2.3,2.2-3.4,3.4l-3-2.6c1.4-2,3-3.9,4.6-5.7,2-2.2,4.2-4.2,6.7-5.9,2.8-2,5.8-3.5,9-4.7,3.6-1.3,7.4-2,11.3-1.9,3.2-.1,6.4,.4,9.4,1.4,2.5,.8,4.7,2.1,6.7,3.8,1.7,1.5,3.1,3.5,4,5.6,.9,2.2,1.4,4.5,1.3,6.9v81.5c0,1.2,.2,2.4,.5,3.5,.4,1.2,.9,2.2,1.6,3.2s1.6,1.8,2.6,2.4c1.2,.6,2.5,1,3.8,.9,2.5,0,4.9-.7,7.1-1.8,2.3-1.2,4.5-2.7,6.5-4.3,1.8-1.5,3.5-3.2,5.1-4.9,1.4-1.6,2.5-2.8,3.1-3.7v-71.3c0-.7,0-1.5-.1-2.4-.1-.8-.3-1.7-.6-2.5-.7-1.7-2.4-2.8-4.3-2.6-1.5,0-3,.6-4.1,1.7-1.2,1-2.3,2.2-3.4,3.4l-3-2.6c1.4-2,3-3.9,4.6-5.7,2-2.2,4.2-4.2,6.7-5.9,2.8-2,5.8-3.5,9-4.7,3.6-1.3,7.4-2,11.3-1.9,3.2-.1,6.4,.4,9.4,1.4,2.5,.8,4.7,2.1,6.7,3.8,1.7,1.5,3.1,3.5,4,5.6,.9,2.2,1.4,4.5,1.3,6.9l-.1,87.6Z"/><path d="M389.61,678.77v90.2c0,4.3,.8,7.3,2.4,9,1.8,1.7,4.2,2.6,6.7,2.5,2.1,0,4.2-.6,5.9-1.8s3.1-2.6,4.4-4.2c1.5-1.8,2.8-3.8,3.8-6l3.8,1.7c-1.2,2.6-2.7,5.5-4.3,8.5-3.8,6.9-9.8,12.3-17.1,15.3-4.2,1.8-9.5,2.7-15.8,2.7-3.5,0-7-.5-10.3-1.6-3.2-1-6.2-2.7-8.8-5-2.6-2.4-4.7-5.3-6.2-8.5-1.6-3.9-2.4-8.1-2.3-12.3v-90.5h-13.7v-8.8c3.2-.2,6.4-.8,9.5-1.8,4.4-1.4,8.7-3.3,12.5-5.9,4.6-3,8.6-6.8,11.9-11.1,3.9-5.1,6.5-11,7.8-17.2h9.8v36h19.9c6.5,0,9.8-1.1,9.8-3.3,0-.8-.5-1.5-1.2-1.7-.8-.3-1.7-.7-2.7-1.1-1-.5-2-1.1-2.8-1.9-.9-1.1-1.4-2.6-1.2-4-.1-2,.7-4,2.1-5.4,1.5-1.4,3.5-2.1,5.6-2,1.3,0,2.7,.3,3.8,.9,1.1,.6,2,1.4,2.8,2.4,.7,1.1,1.3,2.2,1.7,3.5s.5,2.6,.5,3.9c0,5.3-1.5,9.5-4.6,12.6s-8,4.7-14.7,4.7l-19,.2Z"/><path d="M475.61,783.97c0,1.3-.2,2.6-.5,3.8-.4,1.6-1.3,3.1-2.6,4.3-1.7,1.5-3.6,2.7-5.8,3.4-3.3,1.1-6.8,1.5-10.3,1.4-3.4,.1-6.9-.4-10.1-1.5-2.1-.8-4-2-5.5-3.6-1.1-1.2-1.9-2.7-2.3-4.3-.3-1.2-.4-2.3-.4-3.5v-94.3c0-2.2-.5-4.3-1.6-6.2-1.1-1.8-3-2.6-5.6-2.6-1.2,0-2.4,.2-3.5,.7-1.1,.6-2.2,1.3-3.2,2.1l-2.6-3.1c2-1.6,4.1-3.2,6.3-4.6,2.4-1.6,4.9-2.9,7.5-4,2.8-1.2,5.7-2.1,8.7-2.8,3.2-.7,6.5-1.1,9.8-1.1,5.3,0,9.4,.7,12.3,2.1,2.6,1.1,4.8,3,6.5,5.2,1.4,2,2.2,4.3,2.5,6.7,.3,2.1,.4,4.1,.4,6.2v95.7h0Zm-41.2-143.6c0-2.3,.5-4.5,1.5-6.5,1-2.1,2.5-3.9,4.3-5.4,1.9-1.6,4-2.8,6.3-3.7,2.5-.9,5.2-1.4,7.9-1.3,2.6,0,5.3,.4,7.8,1.3,2.3,.8,4.4,2.1,6.3,3.7,1.8,1.5,3.2,3.4,4.2,5.4s1.5,4.3,1.5,6.5-.5,4.5-1.5,6.6c-1,2-2.5,3.8-4.2,5.3-1.9,1.6-4,2.8-6.3,3.6-2.5,.9-5.1,1.4-7.8,1.3-2.7,0-5.3-.4-7.9-1.3-2.3-.8-4.5-2-6.3-3.6-1.8-1.4-3.2-3.3-4.3-5.3-1-2-1.6-4.3-1.5-6.6Z"/><path d="M544.11,701.47c2.8-3.8,5.9-7.7,9.2-11.7,3.2-3.9,6.7-7.4,10.5-10.7,3.7-3.1,7.8-5.8,12.2-7.8,4.5-2.1,9.4-3.1,14.4-3.1,4-.1,8,.8,11.6,2.8,2.9,1.7,5.5,3.9,7.5,6.6,1.8,2.4,3.2,5.1,4,8,.7,2.3,1.1,4.7,1.2,7.1,0,3.8-.5,7.5-1.4,11.2-1,4-2.6,7.9-4.8,11.5-2.5,4.1-5.5,7.8-9,11-4.2,3.9-9,7.1-14.2,9.7,6.7,14.3,14.1,28.3,22.3,41.8,6.1,10.2,13.1,19.8,20.9,28.8,6.7,7.5,13.2,13.1,19.3,16.7,6.2,3.6,12.1,5.4,17.7,5.4,1,0,2-.1,2.9-.4,.9-.2,1.8-.5,2.7-.9,1-.4,1.9-.8,2.8-1.2l2.3,4.3c-2.2,1.2-4.4,2.4-6.7,3.5-2.5,1.2-5.1,2.1-7.8,2.9-3.3,.9-6.7,1.6-10.1,2-4.5,.5-9.1,.8-13.7,.7-4.8,0-9.6-.6-14.2-1.7-5-1.3-9.8-3.3-14.1-6.1-5.2-3.3-10-7.3-14.3-11.7-5.5-5.7-10.5-11.9-14.9-18.6-5.7-8.6-10.9-17.6-15.6-26.8-5.4-10.3-10.9-22.4-16.7-36.3,6.6-4.7,12.8-10.1,18.4-16,3.8-4.1,7.2-8.6,10.1-13.4,2-3.3,3.4-6.9,4.3-10.6,.5-2.6,.8-5.3,.9-7.9,0-.3,0-.9-.1-1.7s-.4-1.6-.8-2.3c-.5-.8-1.2-1.5-2-2-1.1-.6-2.3-.9-3.6-.8-3,0-6.1,1.3-9.2,3.8-3.3,2.8-6.3,6-8.9,9.5-2.9,3.9-5.4,8-7.6,12.2-2.3,4.3-4.2,8.3-5.6,11.9v63c0,1.3-.2,2.5-.5,3.8-.4,1.6-1.3,3-2.6,4.2-1.7,1.5-3.7,2.7-5.9,3.4-3.3,1.1-6.8,1.5-10.3,1.4-3.4,.1-6.9-.4-10.1-1.5-2.1-.8-3.9-2-5.4-3.6-1.1-1.2-1.8-2.7-2.2-4.3-.2-1.2-.4-2.3-.4-3.5v-157.6c0-2.2-.5-4.3-1.6-6.2-1.1-1.7-3-2.6-5.6-2.6-1.2,0-2.5,.2-3.6,.7-1.2,.5-2.2,1.2-3.2,2l-2.5-2.9c2-1.6,4.1-3.2,6.2-4.6,2.4-1.6,4.9-2.9,7.5-4,2.8-1.2,5.7-2.1,8.7-2.8,3.2-.7,6.5-1.1,9.8-1.1,5.3,0,9.4,.7,12.3,2.1,2.6,1.1,4.8,3,6.5,5.2,1.3,2,2.2,4.2,2.5,6.6,.3,2,.4,4.1,.4,6.2l.1,76.4Z"/><path d="M782.11,778.97c0,6.3-1.7,10.8-5,13.7-3.3,2.8-8.4,4.3-15.1,4.3s-11.9-1.4-15.1-4.3c-3.3-2.9-4.9-7.4-4.9-13.7v-146c0-4.5-3.1-6.7-9.3-6.7-4.6,0-9.2,.7-13.6,2-4.4,1.3-8.6,3.1-12.5,5.5-3.5,2.2-6.6,5-9.1,8.3-2.3,3-3.5,6.7-3.5,10.4-.1,2.1,.2,4.2,1,6.2,.5,1.3,1.3,2.5,2.4,3.5,.8,.7,1.7,1.2,2.8,1.5,.7,.2,1.3,.3,2,.3,1.7,.1,3.4-.3,5-1,1.2-.6,2.4-1.4,3.5-2.2l3-2.2c.9-.7,2.1-1,3.2-1s2.1,.3,3.1,.7c1.1,.5,2.2,1.2,3,2.1,1,1.1,1.8,2.4,2.4,3.8,.7,1.9,1,3.8,1,5.8,.1,2.9-.6,5.8-1.9,8.4-1.2,2.3-2.9,4.3-4.9,5.9-2,1.6-4.4,2.8-6.8,3.5-2.5,.8-5,1.1-7.6,1.2-3.6,.1-7.2-.6-10.6-2-3-1.3-5.8-3.2-8-5.5-2.2-2.4-3.9-5.2-5-8.3-1.2-3.3-1.7-6.7-1.7-10.1-.1-6.2,1.2-12.3,3.8-17.9,2.5-5.2,6.2-9.8,10.7-13.4,5-4,10.6-7.1,16.5-9.3,6.9-2.6,14.1-4.6,21.4-5.9,8.3-1.5,16.7-2.6,25.1-3.1,8.9-.6,18.2-.9,27.8-.9,23.3,0,40.9,4.5,52.9,13.4s18,21.7,17.9,38.4c.1,7.3-1,14.6-3.2,21.6-1.9,5.9-4.9,11.3-8.7,16.2-3.5,4.4-7.7,8.1-12.5,11-9,5.4-19.4,8-29.8,7.5-4.8-.2-9.6-1.2-14.1-2.9l1.7-5.2c6.1,1.9,11.1,1.9,15.1,.2,4.1-1.9,7.4-5.2,9.3-9.3,2.5-5.4,4.1-11.1,4.6-17,.9-7.5,1.3-15,1.3-22.6,.1-5.7-.6-11.4-2-16.9-1.1-4.6-2.9-9-5.3-13-2-3.3-4.6-6.2-7.8-8.4-2.8-1.9-6.1-3-9.5-3-2.2-.1-4.4,.3-6.4,1.2-2.9,1.2-5,3.7-5.9,6.7-.4,1.3-.6,2.5-.7,3.8v144.7Z"/><path d="M980.51,773.67c0,.7,0,1.5,.1,2.4,.1,.8,.3,1.7,.6,2.4,.3,.8,.8,1.4,1.5,1.9,.8,.5,1.8,.8,2.8,.7,1.5,0,3-.6,4.2-1.7,1.2-1.1,2.4-2.2,3.4-3.4l2.9,2.6c-1.4,2-3,3.9-4.6,5.7-2,2.2-4.2,4.2-6.7,5.9-2.7,2-5.7,3.5-8.9,4.7-3.6,1.3-7.5,2-11.3,1.9-3.2,.1-6.3-.4-9.3-1.4-2.5-.8-4.7-2.1-6.7-3.8-1.8-1.5-3.2-3.5-4.1-5.6-.9-2.2-1.4-4.5-1.3-6.9v-5.4c-3.9,4.2-8.2,8.1-12.8,11.6-2,1.5-4,2.9-6.2,4.3-2.2,1.4-4.5,2.6-6.8,3.7-2.4,1.1-4.8,2-7.3,2.6-2.5,.7-5,1-7.6,1-4.3,.1-8.6-.8-12.5-2.6-3.3-1.6-6.2-4-8.4-6.9-2.1-2.9-3.7-6.2-4.6-9.6-1-3.5-1.5-7.1-1.5-10.7v-75.5c0-.7,0-1.5-.1-2.4-.1-.8-.3-1.7-.6-2.5-.3-.8-.8-1.4-1.5-1.9-.8-.5-1.8-.8-2.8-.7-1.5,0-3,.6-4.1,1.7-1.2,1-2.3,2.2-3.3,3.4l-3.1-2.6c1.4-2,3-3.9,4.6-5.7,2-2.2,4.2-4.2,6.7-5.9,2.8-2,5.8-3.5,9-4.7,3.6-1.3,7.4-2,11.3-1.9,3.2-.1,6.4,.4,9.4,1.4,2.5,.8,4.7,2.1,6.7,3.8,1.7,1.5,3.1,3.5,4,5.6,.9,2.2,1.4,4.5,1.3,6.9v81.5c0,1.2,.2,2.4,.6,3.5,.4,1.2,.9,2.2,1.6,3.2s1.6,1.8,2.6,2.4c1.2,.6,2.5,1,3.8,.9,2.5,0,4.9-.7,7.1-1.8,2.3-1.2,4.5-2.7,6.5-4.3,1.8-1.5,3.5-3.2,5.1-4.9,1.4-1.6,2.5-2.8,3.1-3.7v-71.3c0-.7,0-1.5-.1-2.4-.1-.8-.3-1.7-.6-2.5-.3-.8-.8-1.4-1.5-1.9-.8-.5-1.8-.8-2.8-.7-1.5,0-3,.6-4.1,1.7-1.2,1-2.3,2.2-3.4,3.4l-3-2.6c1.4-2,3-3.9,4.6-5.7,2-2.2,4.2-4.2,6.7-5.9,2.8-2,5.8-3.5,9-4.7,3.6-1.3,7.4-2,11.3-1.9,3.2-.1,6.4,.4,9.4,1.4,2.5,.8,4.7,2.1,6.7,3.8,1.7,1.5,3.1,3.5,4,5.6,.9,2.2,1.4,4.5,1.3,6.9l-.3,87.6Z"/><path d="M1050.31,784.17c0,1.3-.2,2.5-.6,3.8-.4,1.6-1.3,3-2.6,4.2-1.7,1.5-3.7,2.7-5.9,3.4-3.3,1.1-6.8,1.5-10.3,1.4-3.4,.1-6.9-.4-10.1-1.5-2.1-.8-3.9-2-5.4-3.6-1.1-1.2-1.8-2.7-2.2-4.3-.3-1.2-.4-2.3-.4-3.5v-157.6c.1-2.2-.5-4.3-1.7-6.2-1.1-1.7-3-2.6-5.6-2.6-1.2,0-2.5,.2-3.6,.7-1.2,.5-2.2,1.2-3.2,2l-2.4-2.9c2-1.6,4.1-3.2,6.2-4.6,2.4-1.6,4.9-2.9,7.5-4,2.8-1.2,5.7-2.1,8.7-2.8,3.2-.7,6.5-1.1,9.8-1.1,5.3,0,9.4,.7,12.3,2.1,2.6,1.1,4.8,3,6.5,5.2,1.3,2,2.2,4.2,2.5,6.6,.3,2,.4,4.1,.4,6.2v159.1h.1Z"/><path d="M1077.81,691.17c-.3-2.7-1.1-5.2-2.4-7.6-1.1-1.8-3-2.7-5.6-2.7-1.2,0-2.5,.2-3.6,.7-1.2,.6-2.2,1.3-3.2,2.1l-2.4-3.1c2-1.6,4.1-3.2,6.3-4.6,2.4-1.6,4.9-2.9,7.5-4,2.8-1.2,5.7-2.1,8.7-2.8,3.2-.7,6.5-1.1,9.8-1.1,4.9,0,8.8,.8,11.8,2.5,2.8,1.5,5.3,3.6,7.1,6.2,1.7,2.4,3,5.1,3.7,8,.7,2.5,1.2,5.1,1.6,7.7,3,24.7,6.4,43.3,10.1,56s8.2,19,13.3,19c2.8,0,5.6-1.5,8.2-4.6,3.1-3.8,5.4-8.1,7-12.7,2.2-6.1,3.8-12.4,4.8-18.8,1.3-7.6,1.9-15.3,1.8-23,.1-4.6-.3-9.1-1.1-13.6-.6-3.2-1.4-6.3-2.4-9.3-.9-2.5-1.7-4.6-2.4-6.3-.7-1.4-1-2.9-1.1-4.5,0-1.2,.5-2.3,1.5-3,1.1-.9,2.2-1.6,3.5-2.1,1.3-.6,2.7-1,4.2-1.2,1.1-.2,2.3-.3,3.5-.4,1.8-.1,3.5,.2,5.1,1,1.3,.9,2.2,2.3,2.6,3.8,.8,3,1.4,6.2,1.5,9.3,.3,3.9,.4,8,.4,12.4,0,6.9-.5,13.8-1.3,20.6-.9,7.6-2.2,15.1-3.9,22.6-1.7,7.5-3.9,14.8-6.7,22-2.5,6.6-5.7,13-9.6,18.9-3.4,5.1-7.6,9.6-12.6,13.2-4.6,3.3-10.1,5-15.7,5-6.4,.1-12.6-1.9-17.6-5.9-5.2-4.2-9.5-9.4-12.6-15.3-3.6-6.7-6.5-13.8-8.6-21.1-2.3-7.7-4.1-15.6-5.6-23.5-1.4-7.9-2.6-15.3-3.4-22.3-.8-6.8-1.5-12.7-2.2-17.5Z"/><path d="M1239.31,783.97c0,1.3-.2,2.6-.6,3.8-.4,1.6-1.3,3.1-2.6,4.3-1.7,1.5-3.6,2.7-5.8,3.4-3.3,1.1-6.8,1.5-10.3,1.4-3.4,.1-6.9-.4-10.1-1.5-2.1-.8-4-2-5.5-3.6-1.1-1.2-1.9-2.7-2.3-4.3-.2-1.2-.4-2.3-.4-3.5v-94.3c.1-2.2-.5-4.3-1.6-6.2-1.1-1.7-3-2.6-5.6-2.6-1.2,0-2.4,.2-3.5,.7-1.1,.6-2.2,1.3-3.2,2.1l-2.6-3.1c2-1.6,4.1-3.2,6.3-4.6,2.4-1.6,4.9-2.9,7.5-4,2.8-1.2,5.7-2.1,8.7-2.8,3.2-.7,6.5-1.1,9.8-1.1,5.3,0,9.4,.7,12.3,2.1,2.6,1.1,4.8,3,6.5,5.2,1.4,2,2.2,4.3,2.5,6.7,.3,2.1,.4,4.1,.4,6.2l.1,95.7Zm-41.3-143.6c0-2.3,.5-4.5,1.5-6.5,1-2.1,2.5-3.9,4.3-5.4,1.9-1.6,4-2.8,6.3-3.7,2.5-.9,5.2-1.4,7.9-1.3,2.6,0,5.3,.4,7.8,1.3,2.3,.8,4.4,2.1,6.3,3.7,1.8,1.5,3.2,3.4,4.2,5.4s1.5,4.3,1.5,6.5-.5,4.5-1.5,6.6c-1,2-2.5,3.9-4.2,5.3-1.9,1.6-4,2.8-6.3,3.6-2.5,.9-5.1,1.4-7.8,1.3-2.7,0-5.3-.4-7.9-1.3-2.3-.8-4.5-2.1-6.3-3.6-1.8-1.4-3.2-3.3-4.3-5.3-1-2-1.5-4.3-1.5-6.6Z"/><path d="M1309.21,677.97c-1.8,0-3.6,.2-5.3,.7-1.6,.5-3.2,1.3-4.5,2.4-1.3,1.1-2.3,2.6-3,4.2-.8,1.9-1.1,3.9-1.1,5.9,.1,3.4,1.3,6.8,3.5,9.5,2.6,3.5,5.5,6.7,8.7,9.8,3.5,3.4,7.2,6.9,11.2,10.5s7.7,7.4,11.2,11.5c3.4,3.9,6.3,8.3,8.7,12.9,2.3,4.5,3.5,9.6,3.5,14.7,.1,5.4-.9,10.7-3,15.6-1.9,4.5-4.8,8.4-8.5,11.6-3.9,3.3-8.5,5.8-13.4,7.3-5.7,1.7-11.6,2.6-17.5,2.5-5.2,.1-10.3-.7-15.3-2.4-4.3-1.4-8.3-3.4-12.1-5.8-3.3-2.1-6.3-4.6-9.1-7.4-2.2-2.2-4.1-4.5-5.9-7.1l4.3-3c1.2,1.4,2.6,2.8,4,4,1.7,1.5,3.5,2.8,5.4,4,2,1.2,4.2,2.2,6.4,3,2.3,.8,4.6,1.2,7,1.2,5.9,0,10.7-1.4,14.4-4.2,3.7-2.8,5.6-7,5.6-12.5-.1-3.4-1.2-6.7-3.1-9.6-2.3-3.6-4.8-7-7.7-10.2-3.1-3.5-6.4-7.1-10-10.9-3.5-3.7-6.9-7.6-10-11.6-3-3.8-5.6-8-7.7-12.3-2-4.1-3-8.6-3-13.2-.1-4.7,1-9.3,3.1-13.4,2-3.8,4.9-7,8.3-9.5,3.6-2.6,7.6-4.5,11.8-5.7,4.5-1.3,9.1-1.9,13.7-1.9,5,0,10,.4,14.9,1.5,4.1,.8,8,2.3,11.5,4.5,3.1,1.8,5.6,4.4,7.4,7.5,1.8,3.2,2.7,6.8,2.6,10.5,0,3-1,5.9-3.1,8.1-2,2.3-4.9,3.4-8.6,3.4-3.5,0-6.2-.8-8-2.2-1.8-1.5-2.8-3.8-2.7-6.2-.1-1.4,.4-2.9,1.3-4,.8-.9,1.8-1.8,2.9-2.4,1-.6,2-1.1,2.9-1.6,.7-.3,1.2-1,1.3-1.8,0-2.3-1.2-4.1-3.7-5.4-2.7-1.8-6-2.6-9.3-2.5Z"/></g></svg>